Simulation
nRows=38
nColumns=15
endheader
time  TH_x TH_y TH_z SC_y  SC_z  SC_x  AC_y  AC_z  AC_x  GH_y  GH_z  GH_yy  EL_x  PS_y
1.549999999999999  0.000000  0.000000  0.000000  -56.37937780401689  12.739005403639068  26.002688904815315  52.32989913763551  11.315758734117875  9.227245377080882  35.400324650959966  51.06730921111898  -43.6590102121575  18.506527413974027  120.000000
1.5809999999999989  0.000000  0.000000  0.000000  -55.73331617667567  12.587214228075256  25.324873186779772  52.02972563976241  11.076716631394875  8.613879295035705  35.9367493527151  50.17827586765344  -44.056181652293105  18.6639327623685  120.000000
1.611999999999999  0.000000  0.000000  0.000000  -55.03258440918259  12.399749150760943  24.544578096986598  51.71977573298647  10.817406004085212  7.962393531253815  36.5407844024498  49.14297083365483  -44.463974281092426  18.851960497119727  120.000000
1.642999999999999  0.000000  0.000000  0.000000  -54.2955522967228  12.170786352488884  23.66660250328289  51.41674863332819  10.540400813060463  7.2919320923367374  37.18774547136688  47.96915678497846  -44.8636652329692  19.05965086262799  120.000000
1.6739999999999988  0.000000  0.000000  0.000000  -53.535698540053254  11.893735731719335  22.692597018600473  51.134918349824126  10.247594973507834  6.620706827714141  37.84620348910253  46.669005899869035  -45.22678146853362  19.276651095066004  120.000000
1.7049999999999987  0.000000  0.000000  0.000000  -52.76463947716048  11.563364058712272  21.62314607109781  50.884212836446366  9.940765320737905  5.965161513715314  38.47955996676242  45.258627481583595  -45.516463786864165  19.493388895374594  120.000000
1.7359999999999989  0.000000  0.000000  0.000000  -51.9866266042352  11.175587242009472  20.4572658397999  50.66824949837263  9.621024288133093  5.339620537416494  39.0488365233203  43.75647085949914  -45.69003628201928  19.700154156459163  120.000000
1.7669999999999988  0.000000  0.000000  0.000000  -51.20249250541454  10.729567813628213  19.19485400781828  50.483810928811245  9.288941142690657  4.756145325806476  39.51519846876106  42.182946201797485  -45.70324162004779  19.886175796626873  120.000000
1.7979999999999987  0.000000  0.000000  0.000000  -50.40629552093342  10.227021479943406  17.837091859568865  50.32090449795158  8.945159942147235  4.224326094710666  39.8444961670818  40.55886161001435  -45.51626171219372  20.038990622779878  120.000000
1.8289999999999988  0.000000  0.000000  0.000000  -49.59181561039181  9.673408338008642  16.389617633140812  50.164256390086805  8.59102374291473  3.7510293012654263  40.01224512681381  38.90585769057373  -45.101860557857194  20.144548808310677  120.000000
1.8599999999999988  0.000000  0.000000  0.000000  -48.751894758291066  9.076152165881886  14.86218907593701  49.99590282464077  8.230310112111368  3.340064670138886  40.0098330098964  37.24610132108811  -44.45432940236805  20.18799783557857  120.000000
1.8909999999999987  0.000000  0.000000  0.000000  -47.88625160136761  8.444835643663154  13.271481178726262  49.798394793839265  7.869171358835569  2.991524718084973  39.849001670133745  35.60208278805427  -43.59641055945354  20.156279168109393  120.000000
1.9219999999999986  0.000000  0.000000  0.000000  -47.000330946583524  7.789401398274876  11.637341869551573  49.55875439945326  7.516729809314048  2.703000180975228  39.563538402937986  33.99682820172411  -42.58123194309835  20.040446588591877  120.000000
1.9529999999999987  0.000000  0.000000  0.000000  -46.10948627790158  7.120373581556721  9.98415424908714  49.27129816689007  7.183660710043283  2.470625597308726  39.20549492848993  32.45073706198917  -41.48531647977766  19.837918232405908  120.000000
1.9839999999999987  0.000000  0.000000  0.000000  -45.231077486224905  6.4478866130316685  8.336009947702781  48.93879617516046  6.881512034813285  2.2909480997303646  38.834070463085595  30.979410871091005  -40.39251090718071  19.55385096320378  120.000000
2.014999999999999  0.000000  0.000000  0.000000  -44.384474836260345  5.781233435742025  6.718005229892273  48.57287577153384  6.62157567370589  2.1616426435074465  38.50317548677724  29.59007763349247  -39.374618422630775  19.20050378976359  120.000000
2.0459999999999985  0.000000  0.000000  0.000000  -43.582592688627614  5.127985441418037  5.152953329009828  48.19259707364944  6.414341626154027  2.0818920856421013  38.251477250202996  28.281618156251763  -38.478078869574894  18.795241907704682  120.000000
2.0769999999999986  0.000000  0.000000  0.000000  -42.833849228186004  4.494271834226906  3.662153272865065  47.82053415066747  6.268208484392907  2.052244073869139  38.09948630310757  27.045131169674377  -37.71950498411994  18.357437103590758  120.000000
2.1079999999999988  0.000000  0.000000  0.000000  -42.13966380064508  3.8844800775291484  2.263541173036732  47.479213419379704  6.189237310476095  2.0732113600881426  38.05418719874283  25.867133696005336  -37.09268657849843  17.905897292247094  120.000000
2.1389999999999985  0.000000  0.000000  0.000000  -41.49990855334677  3.303275940032743  0.9707567999252704  47.186657122093706  6.180150661015192  2.143974046026309  38.117796794303764  24.733264941765903  -36.58043986129165  17.45709422884206  120.000000
2.1699999999999986  0.000000  0.000000  0.000000  -40.91151471089303  2.755791538075667  -0.2073855385866609  46.95336300883842  6.240465401681963  2.261330000568116  38.297378761096525  23.630748864674597  -36.168088547496474  17.024165492018806  120.000000
2.2009999999999983  0.000000  0.000000  0.000000  -40.373347790754885  2.247864864376551  -1.267902474250176  46.78157643774504  6.3668611951660825  2.41942793174834  38.610108660711276  22.55155210021181  -35.85229571890308  16.61706832009668  120.000000
2.2319999999999984  0.000000  0.000000  0.000000  -39.88284438093061  1.785857238389261  -2.2122854280087365  46.66647688703212  6.553086019250734  2.610624916934333  39.083423813725155  21.491832573935582  -35.64391899915895  16.243483687029126  120.000000
2.2629999999999986  0.000000  0.000000  0.000000  -39.43906148523471  1.3759035222641638  -3.0469493992184957  46.59882385830608  6.790725596519147  2.8269447689851703  39.75029828765071  20.452453293996022  -35.56594274719825  15.90967926333688  120.000000
2.2939999999999983  0.000000  0.000000  0.000000  -39.03952113277941  1.021640979842031  -3.780753393435491  46.5683711676515  7.069675985509881  3.0607047613854563  40.64074039073854  19.437993684376774  -35.64700027451844  15.621343521503384  120.000000
2.3249999999999984  0.000000  0.000000  0.000000  -38.68349113963762  0.722865569780434  -4.424873224184965  46.56625258360451  7.379256650802708  3.3054323102899605  41.77331325008221  18.456573253860462  -35.914129518724536  15.383961863169683  120.000000
2.3559999999999985  0.000000  0.000000  0.000000  -38.368481536207646  0.4753135635340217  -4.990663792507199  46.58626160639612  7.708397167449486  3.556161180729135  43.148348334781254  17.51825488610617  -36.385015153786085  15.202805251957583  120.000000
2.3869999999999982  0.000000  0.000000  0.000000  -38.09321232591643  0.27155689023225155  -5.489750773829187  46.624757947477896  8.046768024628012  3.8093814035926354  44.745744933896695  16.633620820446005  -37.06318082262462  15.082575552770294  120.000000
2.4179999999999984  0.000000  0.000000  0.000000  -37.8538621563781  0.10253917190699488  -5.932573401031698  46.67940237052227  8.385173834193019  4.062657479620952  46.52596351908359  15.811725758779398  -37.934712347177445  15.026754083770314  120.000000
2.4489999999999985  0.000000  0.000000  0.000000  -37.64676206567363  -0.040280707208163596  -6.328635088412777  46.74778358514675  8.716236289351581  4.314267644085775  48.435444753594496  15.058296965873716  -38.969394548453224  15.036738311089492  120.000000
2.479999999999998  0.000000  0.000000  0.000000  -37.46467669077185  -0.16320395101890559  -6.685737935273582  46.826368893519266  9.034645001878287  4.562716390794559  50.41433593499609  14.374782647184997  -40.12461167137039  15.111018922802275  120.000000
2.5109999999999983  0.000000  0.000000  0.000000  -37.30016036056489  -0.2693425481526428  -7.010436719264194  46.90995816672322  9.337198522636877  4.806547732567689  52.404704802373395  13.758127498423976  -41.35172276222096  15.244934200526258  120.000000
2.5419999999999985  0.000000  0.000000  0.000000  -37.14294761586528  -0.35862466425276296  -7.307756889690317  46.99172438228246  9.622409145746662  5.044357248502245  54.35682407113066  13.201892841884082  -42.6026528609351  15.430993397754627  120.000000
2.572999999999998  0.000000  0.000000  0.000000  -36.984546597719856  -0.42871534745501316  -7.581914976493423  47.06384724609727  9.88984243522685  5.274985627858401  56.231884766411575  12.697610782987995  -43.83472629537008  15.659580156561686  120.000000
2.6039999999999983  0.000000  0.000000  0.000000  -36.81632345413025  -0.47629844469360316  -7.836174950285532  47.11858161406665  10.139555664359104  5.497650243253982  58.00168420276678  12.236659013262276  -45.01313862118797  15.919365208273742  120.000000
2.634999999999998  0.000000  0.000000  0.000000  -36.63383998348077  -0.498472146096775  -8.073592172567011  47.14968790300521  10.371633609278906  5.7119165873908955  59.64589005310335  11.811491474208502  -46.110923213910034  16.197421739544176  120.000000
2.665999999999998  0.000000  0.000000  0.000000  -36.434282327887985  -0.49386608884682237  -8.296500260471277  47.15317683312334  10.585986608123676  5.917770079268556  61.14840201497716  11.416472001886813  -47.107117381568884  16.4793975525691  120.000000
2.6969999999999983  0.000000  0.000000  0.000000  -36.219751219452895  -0.4630888353722578  -8.50695201735056  47.12764982183728  10.782233743901662  6.115611606603955  62.495152153130604  11.047690546103674  -47.98524536893797  16.74995418045112  120.000000
